<svg width="152" height="42" fill="none" xmlns="http://www.w3.org/2000/svg"><g clip-path="url(#a)" fill="#fff"><path d="M95.918 11.396V25.79h3.6V11.396h-3.6ZM52.107 23.386H38.305v-11.99h-3.6V25.79h17.402v-2.404ZM54.505 25.79V11.396h17.403v2.397H58.106v3.598h9.005v2.397h-9.005v3.598h13.802v2.404H54.505ZM93.514 11.396h-4.202l-5.398 5.18-5.398-5.18h-4.202l7.502 7.197-7.502 7.197h4.202l5.398-5.188 5.398 5.188h4.202l-7.502-7.197 7.502-7.197ZM142.12 11.396v11.069l-11.998-11.069h-3.601V25.79h3.601V14.714L142.12 25.79h3.601V11.396h-3.601ZM118.452 23.386a.9.9 0 0 0 .902-.9v-7.778a.908.908 0 0 0-.902-.915h-10.235a.899.899 0 0 0-.831.567.899.899 0 0 0-.064.348v7.784a.9.9 0 0 0 .895.894h10.235Zm-14.698-10.788a1.206 1.206 0 0 1 .348-.85 1.201 1.201 0 0 1 .848-.352h16.802a1.196 1.196 0 0 1 1.202 1.202v12.017a1.209 1.209 0 0 1-.352.85 1.204 1.204 0 0 1-.85.351h-16.835a1.203 1.203 0 0 1-1.163-1.228V12.571v.027Z"/><path d="m11.069 16.41 5.037-7.411 2.572 3.792a159.104 159.104 0 0 0-7.61 3.618ZM92.397 2.022S86.906.02 71.901.02c-19.106 0-37.858 6.209-50.457 11.563l-5.345-7.384L.5 25.79h4.202l1.93-2.844c1.811-1.082 6.888-4.039 13.883-7.457l6.988 10.3h4.202L23.3 14.16C36.52 7.951 55.214.902 71.915.902c14.978 0 20.195 1.61 20.195 1.61a.3.3 0 0 0 .287-.488ZM97.74 9.6a.314.314 0 0 1-.3-.3c0-.394.488-1.181-.735-3.298-1.229-2.116-2.157-2.09-2.492-2.283a.3.3 0 0 1 .301-.52c.34.193.782 1.008 3.227 1.008s2.886-.815 3.226-1.009a.302.302 0 0 1 .408.107.309.309 0 0 1-.107.414c-.341.194-1.27.167-2.492 2.29-1.222 2.116-.735 2.91-.741 3.298a.3.3 0 0 1-.3.3l.006-.006ZM149.422 11.783h-.454v.594h.494c.181 0 .348-.08.348-.294 0-.214-.194-.3-.388-.3Zm.388 1.862-.348-.908h-.494v.908h-.408V11.37h.755c.521 0 .916.12.916.727 0 .328-.127.428-.388.554l.414.968-.447.027Zm-.441-2.884a1.819 1.819 0 0 0-1.679 1.121 1.815 1.815 0 0 0 2.374 2.373 1.82 1.82 0 0 0 1.122-1.678 1.83 1.83 0 0 0-1.817-1.816Zm0 3.946a2.142 2.142 0 0 1-1.976-1.32 2.14 2.14 0 0 1 1.563-2.912 2.136 2.136 0 1 1 .413 4.232ZM5.302 32.23l3.494 8.94H7.46l-.975-2.67H2.724l-1.009 2.67H.505l3.481-8.94h1.316Zm.829 5.248-1.497-4.166-1.536 4.166H6.13ZM10.114 39.727c.098.16.233.293.394.388.172.1.36.17.554.207.207.04.418.06.628.06.177-.002.353-.013.528-.034.175-.024.345-.071.508-.14a.975.975 0 0 0 .38-.294.78.78 0 0 0 .154-.494.714.714 0 0 0-.314-.627 2.814 2.814 0 0 0-.781-.34 12.785 12.785 0 0 0-1.022-.241 5.72 5.72 0 0 1-1.023-.3 2.065 2.065 0 0 1-.781-.548 1.381 1.381 0 0 1-.314-.974 1.548 1.548 0 0 1 .22-.842c.141-.23.333-.424.561-.567.24-.15.501-.26.775-.327.283-.069.572-.105.862-.107.34-.001.68.03 1.016.093.29.058.565.17.815.328.242.156.44.372.574.627a2.4 2.4 0 0 1 .247.981h-1.062a1.195 1.195 0 0 0-.133-.507 1.101 1.101 0 0 0-.355-.327 1.418 1.418 0 0 0-.467-.18c-.171-.04-.346-.06-.521-.06-.161 0-.322.013-.481.04-.155.019-.306.061-.448.127a.962.962 0 0 0-.327.253.668.668 0 0 0-.12.407.58.58 0 0 0 .193.454c.145.13.312.233.495.3.216.087.44.154.668.201l.748.174c.266.054.53.123.788.207.237.08.462.192.668.333.193.139.355.316.475.521.127.238.19.505.18.775.013.343-.07.683-.24.98-.17.259-.399.472-.669.622a2.582 2.582 0 0 1-.888.334c-.324.06-.653.092-.982.093-.346 0-.691-.038-1.029-.114a2.513 2.513 0 0 1-.862-.367c-.251-.17-.457-.4-.601-.667a2.349 2.349 0 0 1-.234-1.042h1.07c-.003.208.05.413.153.594ZM18.057 34.735v.941h-1.29v4.006c-.011.1-.011.2 0 .3.02.07.062.131.12.174.076.045.16.073.248.08.135.009.272.009.407 0h.488v.935h-.788a3.638 3.638 0 0 1-.709-.054 1.07 1.07 0 0 1-.474-.207.895.895 0 0 1-.274-.427 2.583 2.583 0 0 1-.087-.72v-4.12h-1.102v-.908h1.102v-2.003h1.07v2.003h1.289ZM20.133 34.735v1.335c.21-.464.536-.864.949-1.162a2.414 2.414 0 0 1 1.43-.354v1.128c-.37-.008-.74.051-1.09.174a1.824 1.824 0 0 0-.727.514 2.25 2.25 0 0 0-.401.821 4.618 4.618 0 0 0-.12 1.108v2.878h-1.07v-6.442h1.03ZM29.099 41.151a1.552 1.552 0 0 1-.769.16.884.884 0 0 1-.668-.233.987.987 0 0 1-.247-.755c-.27.336-.622.596-1.022.755-.4.16-.826.239-1.256.233a3.407 3.407 0 0 1-.835-.1 1.877 1.877 0 0 1-.668-.314 1.422 1.422 0 0 1-.454-.554 1.876 1.876 0 0 1-.174-.834c-.01-.311.054-.62.187-.902.12-.225.292-.42.501-.567.211-.153.45-.266.701-.334.264-.076.532-.139.802-.187.294-.06.575-.1.835-.133a3.71 3.71 0 0 0 .668-.127c.174-.04.336-.12.474-.234a.581.581 0 0 0 .18-.46 1.053 1.053 0 0 0-.133-.561.888.888 0 0 0-.34-.327 1.249 1.249 0 0 0-.461-.147 3.334 3.334 0 0 0-.508-.04 2.312 2.312 0 0 0-1.13.253 1.11 1.11 0 0 0-.46.995H23.26c.003-.352.088-.7.247-1.014.145-.267.351-.496.601-.668.263-.175.555-.301.862-.374a4.6 4.6 0 0 1 1.036-.114c.29.003.58.025.868.067.274.037.538.123.782.254.233.128.427.317.56.547.157.276.231.592.214.908v3.338c-.007.184.009.368.047.548 0 .12.127.173.294.173.11-.001.22-.017.328-.047v.795Zm-1.73-3.338a1.236 1.236 0 0 1-.529.214c-.22.049-.443.087-.668.113l-.721.1c-.23.033-.454.094-.668.18a1.217 1.217 0 0 0-.474.354c-.137.195-.201.431-.18.668a.828.828 0 0 0 .106.44.89.89 0 0 0 .274.294c.121.076.254.13.394.16.158.033.32.049.481.047.307.007.612-.04.902-.14a1.79 1.79 0 0 0 .608-.36c.15-.132.27-.294.354-.475.07-.15.108-.314.114-.48l.006-1.115ZM35.345 33.239h-5.138V32.23h6.54v1.008l-5.544 6.93H36.9v1h-7.115v-1l5.559-6.93ZM42.408 40.743a2.92 2.92 0 0 1-1.824.547 3.34 3.34 0 0 1-1.336-.246 2.59 2.59 0 0 1-.956-.668 3.015 3.015 0 0 1-.587-1.082 5.1 5.1 0 0 1-.214-1.335 4.002 4.002 0 0 1 .22-1.335c.152-.394.379-.754.668-1.061.273-.285.6-.513.962-.668.385-.17.802-.257 1.223-.254a2.633 2.633 0 0 1 1.436.36c.373.227.686.538.915.909.23.369.39.776.475 1.201.086.406.122.821.107 1.236H38.6a2.67 2.67 0 0 0 .1.807c.077.245.202.472.367.668.175.2.392.36.635.467.289.123.601.183.915.174a1.805 1.805 0 0 0 1.11-.388c.303-.234.506-.575.567-.954h1.049a2.57 2.57 0 0 1-.935 1.622Zm-.254-4.159a1.77 1.77 0 0 0-.388-.58 1.71 1.71 0 0 0-.574-.388 1.763 1.763 0 0 0-.735-.147 1.806 1.806 0 0 0-.748.147 1.704 1.704 0 0 0-.568.394c-.16.169-.286.366-.374.58-.094.226-.15.465-.167.708h3.694a2.147 2.147 0 0 0-.14-.694v-.02ZM45.367 34.736v1.028a2.237 2.237 0 0 1 2.104-1.182c.363-.011.724.05 1.062.18.26.105.49.273.668.488.202.197.353.44.441.707.072.316.108.638.107.962v4.252H48.68v-4.38a1.276 1.276 0 0 0-.374-.947 1.336 1.336 0 0 0-.969-.354 2.152 2.152 0 0 0-.841.154 1.55 1.55 0 0 0-.595.42 1.862 1.862 0 0 0-.36.668 2.595 2.595 0 0 0-.121.807v3.652h-1.056v-6.455h1.003ZM55.374 40.743a2.92 2.92 0 0 1-1.824.547 3.34 3.34 0 0 1-1.336-.246 2.59 2.59 0 0 1-.955-.668 3.018 3.018 0 0 1-.588-1.082 5.105 5.105 0 0 1-.214-1.335 4.001 4.001 0 0 1 .22-1.335c.153-.394.38-.754.669-1.061.272-.285.6-.513.962-.668.385-.17.801-.257 1.222-.254a2.633 2.633 0 0 1 1.437.36c.37.23.684.54.915.909.229.369.39.776.474 1.201.087.406.123.821.107 1.236h-4.897c-.005.24.022.48.08.714.077.245.202.472.368.667.184.205.412.365.668.468.289.123.601.182.915.173.387.023.772-.08 1.096-.294.305-.23.508-.57.568-.947h1.062a2.57 2.57 0 0 1-.949 1.615Zm-.254-4.139a1.823 1.823 0 0 0-1.697-1.115 1.804 1.804 0 0 0-.748.147 1.771 1.771 0 0 0-.942.975c-.093.225-.15.464-.167.707h3.721a2.149 2.149 0 0 0-.167-.714ZM61.226 35.829a1.61 1.61 0 0 0-1.076-.34 2.005 2.005 0 0 0-.962.213 1.684 1.684 0 0 0-.62.56c-.163.246-.276.52-.335.809a4.43 4.43 0 0 0-.1.948c-.002.294.034.588.107.874.063.272.176.53.334.761.149.222.35.403.588.527.265.14.562.209.861.2.45.03.894-.12 1.236-.413.313-.311.504-.723.541-1.162h1.096a3.037 3.037 0 0 1-.895 1.856 2.82 2.82 0 0 1-1.964.668 3.342 3.342 0 0 1-1.336-.24 2.512 2.512 0 0 1-.956-.668 3.037 3.037 0 0 1-.574-1.042 4.473 4.473 0 0 1-.194-1.335c.002-.451.065-.9.187-1.335.115-.402.31-.777.575-1.102.258-.314.585-.565.955-.734.42-.188.876-.282 1.336-.274a3.91 3.91 0 0 1 1.029.134c.308.08.598.22.855.407.245.18.452.407.608.668.168.307.27.646.3.995h-1.068a1.622 1.622 0 0 0-.528-.975ZM69.583 41.15a1.55 1.55 0 0 1-.768.161.883.883 0 0 1-.668-.233 1.015 1.015 0 0 1-.248-.755 2.518 2.518 0 0 1-1.015.755c-.401.16-.83.24-1.263.233a3.405 3.405 0 0 1-.835-.1 1.878 1.878 0 0 1-.668-.314 1.484 1.484 0 0 1-.447-.554 2.142 2.142 0 0 1 0-1.736c.116-.226.285-.421.494-.567.201-.15.427-.263.668-.334.266-.077.536-.14.808-.187.288-.06.568-.1.829-.133a3.7 3.7 0 0 0 .668-.127c.175-.042.34-.122.48-.234a.601.601 0 0 0 .174-.46 1.053 1.053 0 0 0-.133-.561.921.921 0 0 0-.334-.327 1.336 1.336 0 0 0-.468-.147 3.246 3.246 0 0 0-.508-.04 2.265 2.265 0 0 0-1.122.253 1.108 1.108 0 0 0-.42.995h-1.063c.003-.353.088-.7.247-1.015.145-.266.351-.495.602-.667.262-.175.554-.301.861-.374.34-.076.687-.114 1.036-.114.29.003.58.025.868.067.274.037.539.123.782.254.234.13.43.319.568.547.15.278.222.592.207.908v3.338c-.004.184.011.367.046.548 0 .12.127.173.294.173.111-.001.221-.017.328-.047v.795Zm-1.73-3.337a1.236 1.236 0 0 1-.528.214c-.22.049-.444.087-.668.113l-.722.1c-.229.033-.453.093-.668.18a1.215 1.215 0 0 0-.474.354c-.137.195-.201.431-.18.668a.894.894 0 0 0 .106.44c.07.117.163.217.274.294.121.076.255.13.394.16.159.033.32.049.481.047.307.007.612-.04.902-.14a1.89 1.89 0 0 0 .615-.36c.145-.134.264-.295.347-.475a1.25 1.25 0 0 0 .114-.48l.007-1.115ZM78.487 32.232a2.96 2.96 0 0 1 2.004.627 2.156 2.156 0 0 1 .722 1.716c.012.501-.115.996-.368 1.429a1.93 1.93 0 0 1-1.182.84c.225.04.44.126.628.255.16.107.293.251.387.42.101.167.173.35.214.54.047.208.082.418.107.628 0 .219.013.441.04.668.007.224.027.447.06.668.032.21.08.418.147.62.057.19.153.364.28.514h-1.335a.722.722 0 0 1-.167-.373 3.927 3.927 0 0 1-.06-.534v-.628a4.433 4.433 0 0 0-.08-.667c0-.214-.074-.421-.12-.615a1.524 1.524 0 0 0-.241-.514 1.123 1.123 0 0 0-.428-.354 1.578 1.578 0 0 0-.668-.133H75.52v3.819h-1.19v-8.926h4.156Zm.254 4.059c.237-.032.465-.114.668-.24.189-.126.345-.296.454-.495.12-.247.177-.52.167-.794.016-.4-.118-.793-.374-1.102a1.57 1.57 0 0 0-1.216-.42h-2.96v3.11h2.48c.261.001.522-.019.78-.06ZM88.16 41.15a1.55 1.55 0 0 1-.768.16.884.884 0 0 1-.668-.234 1.014 1.014 0 0 1-.247-.755 2.518 2.518 0 0 1-1.015.755c-.402.16-.83.24-1.263.234a3.412 3.412 0 0 1-.835-.1 1.877 1.877 0 0 1-.668-.314 1.549 1.549 0 0 1-.454-.554 2.141 2.141 0 0 1 0-1.736c.116-.227.285-.422.494-.568.211-.153.45-.266.701-.333.266-.078.536-.14.809-.187.287-.06.568-.1.828-.134.237-.02.472-.063.702-.127.172-.043.334-.123.474-.233a.599.599 0 0 0 .174-.461 1.054 1.054 0 0 0-.134-.56.922.922 0 0 0-.334-.328 1.34 1.34 0 0 0-.468-.147 3.27 3.27 0 0 0-.507-.04 2.286 2.286 0 0 0-1.123.254 1.109 1.109 0 0 0-.494.975h-1.062c.006-.353.09-.7.247-1.015a1.89 1.89 0 0 1 .608-.668c.26-.176.55-.303.855-.374.34-.076.687-.114 1.035-.113.291.002.581.025.869.067.274.036.538.122.782.253.233.13.429.319.567.548.151.278.223.592.207.908v3.338a2.57 2.57 0 0 0 .047.547c0 .12.127.174.294.174.11-.002.22-.017.328-.047l.02.814Zm-1.73-3.339a1.236 1.236 0 0 1-.528.214c-.22.05-.443.087-.668.114l-.721.1a2.957 2.957 0 0 0-.668.18 1.27 1.27 0 0 0-.474.354c-.137.194-.201.43-.18.667a.894.894 0 0 0 .106.44.97.97 0 0 0 .274.295c.123.077.259.131.4.16.157.033.316.049.475.047.307.006.612-.041.902-.14a1.89 1.89 0 0 0 .615-.361c.145-.134.263-.295.347-.474.07-.151.108-.314.114-.48l.006-1.116ZM90.166 34.735v1.335c.212-.464.541-.864.956-1.161.427-.266.927-.39 1.43-.354v1.128a3.141 3.141 0 0 0-1.096.174c-.28.107-.53.284-.722.514-.193.24-.33.52-.4.82-.091.363-.134.736-.127 1.109v2.877h-1.063v-6.442h1.022ZM97.902 40.743a2.941 2.941 0 0 1-1.83.547 3.341 3.341 0 0 1-1.336-.247 2.672 2.672 0 0 1-.962-.667 3.115 3.115 0 0 1-.582-1.082 5.38 5.38 0 0 1-.22-1.335c0-.455.076-.906.227-1.335.142-.391.357-.752.635-1.062.27-.286.598-.514.962-.667.385-.17.801-.257 1.222-.254a2.674 2.674 0 0 1 1.437.36c.37.229.684.54.915.908.229.37.39.776.474 1.202.084.406.12.82.107 1.235h-4.85a2.67 2.67 0 0 0 .1.808c.074.246.2.473.368.667.173.202.39.362.634.468.29.123.601.182.915.173.395.02.784-.09 1.11-.313.304-.231.508-.57.567-.948h1.056a2.57 2.57 0 0 1-.949 1.542Zm-.254-4.16a1.883 1.883 0 0 0-.387-.58 1.864 1.864 0 0 0-1.336-.534 1.784 1.784 0 0 0-1.316.54 1.77 1.77 0 0 0-.374.581c-.094.225-.15.465-.168.708h3.722a2.146 2.146 0 0 0-.14-.694v-.02ZM106.821 32.232a4.478 4.478 0 0 1 3.186 1.055 4.214 4.214 0 0 1 1.116 3.204c.01.676-.076 1.35-.254 2.003a3.81 3.81 0 0 1-.775 1.469 3.494 3.494 0 0 1-1.336.908 5.406 5.406 0 0 1-1.931.307h-3.073v-8.946h3.067Zm.1 7.938h.501c.228-.024.452-.075.668-.154.236-.085.46-.2.668-.34.237-.164.439-.373.594-.614.191-.305.331-.639.415-.988.124-.46.182-.934.173-1.41a5.824 5.824 0 0 0-.16-1.428 2.815 2.815 0 0 0-.514-1.081c-.244-.3-.562-.53-.922-.668a3.67 3.67 0 0 0-1.39-.227h-2.004v6.91h1.971ZM112.039 33.54v-1.335h1.069v1.335h-1.069Zm1.069 1.195v6.47h-1.069v-6.47h1.069ZM115.331 39.729c.096.16.232.294.394.387.17.099.355.169.548.207.209.04.421.06.634.06a4.97 4.97 0 0 0 .528-.033c.175-.024.346-.072.508-.14a.984.984 0 0 0 .381-.294c.1-.15.144-.329.127-.508a.711.711 0 0 0-.308-.627 2.762 2.762 0 0 0-.788-.34c-.314-.094-.668-.167-1.015-.24a5.561 5.561 0 0 1-1.023-.301 2.15 2.15 0 0 1-.788-.548 1.409 1.409 0 0 1-.307-.974 1.543 1.543 0 0 1 .214-.842c.143-.23.337-.424.567-.567.239-.15.501-.26.775-.327.283-.069.572-.104.862-.107a5.24 5.24 0 0 1 1.009.094c.292.056.571.167.822.327.24.158.438.374.574.627.151.306.236.64.247.982h-1.042a1.018 1.018 0 0 0-.514-.848 1.463 1.463 0 0 0-.475-.18 2.206 2.206 0 0 0-.514-.06 3.08 3.08 0 0 0-.488.04c-.152.02-.301.062-.441.126a.96.96 0 0 0-.327.254.668.668 0 0 0-.127.407.602.602 0 0 0 .194.454c.146.127.314.23.494.3.217.086.44.153.668.2l.749.174c.264.055.525.124.781.207.237.081.461.194.668.334.193.138.355.316.475.52.127.239.189.506.18.775.013.343-.07.683-.241.982a1.95 1.95 0 0 1-.668.62 2.58 2.58 0 0 1-.888.334c-.324.06-.653.092-.982.094a4.69 4.69 0 0 1-1.029-.114 2.6 2.6 0 0 1-.868-.367 2.007 2.007 0 0 1-.602-.667 2.352 2.352 0 0 1-.247-1.022h1.062c.021.216.097.423.221.6ZM125.133 40.743a2.922 2.922 0 0 1-1.824.547 3.336 3.336 0 0 1-1.336-.246 2.597 2.597 0 0 1-.956-.668 3.027 3.027 0 0 1-.588-1.082 5.08 5.08 0 0 1-.213-1.335 3.99 3.99 0 0 1 .22-1.335c.142-.391.357-.751.635-1.061.272-.285.599-.513.962-.668.385-.17.801-.257 1.222-.254a2.635 2.635 0 0 1 1.437.36c.37.23.684.54.915.909.229.369.389.776.474 1.201.087.406.123.821.107 1.236h-4.85c-.008.272.026.545.1.807.077.245.202.472.368.668a1.8 1.8 0 0 0 .668.467c.289.123.601.183.915.174.394.02.784-.091 1.109-.314.305-.232.51-.57.574-.948h1.049a2.574 2.574 0 0 1-.988 1.542Zm-.254-4.159a1.774 1.774 0 0 0-.388-.58 1.708 1.708 0 0 0-.574-.388c-.232-.1-.483-.15-.735-.147a1.805 1.805 0 0 0-.748.147 1.694 1.694 0 0 0-.568.394 1.759 1.759 0 0 0-.374.58 2.215 2.215 0 0 0-.167.708h3.721a2.134 2.134 0 0 0-.201-.694l.034-.02ZM133.002 41.15a1.551 1.551 0 0 1-.768.16.883.883 0 0 1-.668-.234 1.022 1.022 0 0 1-.247-.754 2.49 2.49 0 0 1-1.023.754c-.399.16-.825.24-1.255.234a3.42 3.42 0 0 1-.836-.1 1.883 1.883 0 0 1-.668-.314 1.427 1.427 0 0 1-.454-.554 1.891 1.891 0 0 1-.174-.835c-.01-.31.055-.62.188-.901.12-.226.292-.42.501-.568.211-.153.449-.266.701-.333.266-.078.536-.14.808-.187.288-.06.568-.1.829-.134.226-.022.449-.064.668-.127.175-.042.339-.121.481-.233a.6.6 0 0 0 .173-.461 1.046 1.046 0 0 0-.133-.56.89.89 0 0 0-.341-.328 1.244 1.244 0 0 0-.461-.147 3.327 3.327 0 0 0-.508-.04 2.316 2.316 0 0 0-1.129.254 1.108 1.108 0 0 0-.487.975h-1.062c.003-.353.087-.7.247-1.015.145-.267.351-.495.601-.668.263-.174.555-.3.862-.374a4.6 4.6 0 0 1 1.035-.113c.291.002.581.025.869.067.273.037.538.122.781.253.234.129.428.318.562.548.156.276.23.59.213.908v3.338c-.007.183.009.367.047.547 0 .12.127.174.294.174.111-.002.221-.017.327-.047l.027.814Zm-1.73-3.339a1.239 1.239 0 0 1-.528.214c-.221.05-.443.087-.668.114l-.721.1a2.86 2.86 0 0 0-.669.18 1.225 1.225 0 0 0-.474.354c-.137.194-.201.43-.18.667a.828.828 0 0 0 .107.441.877.877 0 0 0 .274.294c.121.076.254.13.394.16.158.033.319.048.481.047.306.006.612-.041.902-.14.225-.08.434-.203.614-.361.143-.135.259-.295.341-.474.069-.151.108-.314.113-.48l.014-1.116ZM134.832 39.727c.098.16.233.293.394.388.172.098.36.168.555.207.209.04.421.06.634.06.174-.002.348-.013.521-.034.175-.023.346-.07.508-.14a.983.983 0 0 0 .381-.294.776.776 0 0 0 .153-.494.704.704 0 0 0-.314-.627 2.664 2.664 0 0 0-.781-.34 12.833 12.833 0 0 0-1.022-.241 5.687 5.687 0 0 1-1.022-.3 2.064 2.064 0 0 1-.782-.548 1.412 1.412 0 0 1-.314-.974 1.554 1.554 0 0 1 .22-.842c.143-.228.335-.422.562-.567.241-.15.505-.26.781-.327.28-.069.567-.104.855-.107.341-.002.681.03 1.016.093.291.06.569.17.821.328.239.158.434.374.568.627.154.305.24.64.254.981h-1.069a.984.984 0 0 0-.514-.848 1.336 1.336 0 0 0-.468-.18 2.31 2.31 0 0 0-.521-.06c-.161 0-.322.014-.481.04-.154.02-.305.063-.447.127a.87.87 0 0 0-.321.254.622.622 0 0 0-.127.407.602.602 0 0 0 .194.454c.144.13.312.232.494.3.217.085.44.152.668.2l.755.174c.264.055.525.124.782.207.236.08.461.193.668.334.195.138.359.315.481.52.127.238.189.506.18.775.014.344-.072.685-.247.981a1.89 1.89 0 0 1-.668.621 2.625 2.625 0 0 1-.895.334c-.324.061-.653.092-.982.094-.346 0-.692-.038-1.029-.114a2.558 2.558 0 0 1-.862-.367 1.94 1.94 0 0 1-.601-.668 2.343 2.343 0 0 1-.254-1.021h1.069c.015.21.087.413.207.587ZM144.607 40.743a2.957 2.957 0 0 1-1.831.547 3.298 3.298 0 0 1-1.336-.246 2.67 2.67 0 0 1-.962-.668 2.908 2.908 0 0 1-.581-1.082 5.353 5.353 0 0 1-.221-1.335 3.87 3.87 0 0 1 .228-1.335c.149-.395.376-.756.668-1.061.27-.288.597-.516.962-.668.384-.17.801-.257 1.222-.254.501-.02.998.106 1.43.36.372.227.686.538.915.909.231.368.394.775.481 1.201.083.407.119.821.107 1.235h-4.85c-.008.273.026.546.1.808.072.246.195.473.361.668.183.205.412.365.668.467.289.124.601.183.915.174.394.018.783-.092 1.109-.314.303-.233.506-.571.568-.948h1.055a2.63 2.63 0 0 1-1.008 1.542Zm-.254-4.159a1.8 1.8 0 0 0-.394-.58 1.71 1.71 0 0 0-.575-.388 1.93 1.93 0 0 0-1.476 0 1.726 1.726 0 0 0-.575.394c-.157.17-.284.367-.374.58a2.054 2.054 0 0 0-.16.708h3.707a2.33 2.33 0 0 0-.153-.694v-.02Z"/></g><defs><clipPath id="a"><path fill="#fff" transform="translate(.5)" d="M0 0h151v41.31H0z"/></clipPath></defs></svg>