<svg width="20" height="20" fill="none" xmlns="http://www.w3.org/2000/svg"><path fill-rule="evenodd" clip-rule="evenodd" d="M17.364 4c.119 0 .235.013.347.037l-7.244 7.245a.826.826 0 01-1.169 0L2.105 4.088A1.63 1.63 0 012.636 4h14.728zm-3.817 5.969l5.203-5.203c.158.252.25.55.25.87v9.585c0 .065-.004.128-.011.191a1.94 1.94 0 00-.055-.057L13.59 10.01l-.042-.041zm-7.295.034L1.166 4.917a1.63 1.63 0 00-.166.72v9.616l5.21-5.21.042-.041zm12.007 6.588a1.628 1.628 0 01-.895.266H2.636a1.63 1.63 0 01-1.027-.363.824.824 0 01.174-.254l5.312-5.312 1.243 1.243a2.185 2.185 0 003.09 0l1.277-1.277 5.345 5.345a.82.82 0 01.209.352z" fill="#098"/></svg>