<svg width="20" height="20" fill="none" xmlns="http://www.w3.org/2000/svg"><g clip-path="url(#clip0_2606_6770)"><path d="M2.78 17.804c8.124-.084 14.56-6.581 14.388-14.502a.757.757 0 00-.605-.717l-3.31-.708a.774.774 0 00-.514.066.738.738 0 00-.347.374l-1.445 3.479a.725.725 0 00-.03.47.752.752 0 00.266.395l1.953 1.514c-1.112 2.434-3.092 4.402-5.497 5.54l-1.611-1.86a.775.775 0 00-.893-.202l-3.515 1.52a.741.741 0 00-.371.351.724.724 0 00-.052.504l.83 3.208a.754.754 0 00.276.412.78.78 0 00.477.156z" fill="#098"/></g><defs><clipPath id="clip0_2606_6770"><path fill="#fff" d="M0 0h20v20H0z"/></clipPath></defs></svg>