<svg width="20" height="20" viewBox="0 0 20 20" fill="none" xmlns="http://www.w3.org/2000/svg">
<path fill-rule="evenodd" clip-rule="evenodd" d="M17.3636 4C17.483 4 17.5993 4.01277 17.7114 4.03703L10.4666 11.2819C10.144 11.6045 9.62093 11.6045 9.29834 11.2819L2.10475 4.08829C2.27143 4.03106 2.45027 4 2.63636 4H17.3636ZM13.5475 9.96868L18.7498 4.76637C18.9083 5.01839 19 5.31667 19 5.63636V15.2208C19 15.2855 18.9962 15.3494 18.9889 15.4122C18.9712 15.393 18.9529 15.3741 18.9343 15.3555L13.5886 10.0098L13.5475 9.96868ZM6.25158 10.0029L1.16603 4.91733C1.0597 5.13436 1 5.37839 1 5.63636V15.2208C1 15.2319 1.00011 15.243 1.00033 15.2541L6.21081 10.0437L6.25158 10.0029ZM18.259 16.5906C18.0018 16.7592 17.6941 16.8571 17.3636 16.8571H2.63636C2.24721 16.8571 1.88978 16.7213 1.60892 16.4944C1.64907 16.4019 1.70697 16.3153 1.7826 16.2396L7.09469 10.9275L8.33771 12.1706C9.19104 13.0239 10.5745 13.0239 11.4279 12.1706L12.7047 10.8937L18.0504 16.2394C18.1519 16.3408 18.2214 16.462 18.259 16.5906Z" fill="#009988"/>
</svg>
