<svg width="20" height="20" viewBox="0 0 20 20" fill="none" xmlns="http://www.w3.org/2000/svg">
<g clip-path="url(#clip0_2606_6770)">
<path d="M2.77961 17.804C10.9039 17.7204 17.3391 11.2225 17.1681 3.30223C17.1605 2.95423 16.9072 2.65863 16.5631 2.58502L13.2527 1.87674C13.0781 1.83939 12.8963 1.86297 12.739 1.94336C12.5817 2.02375 12.459 2.15584 12.3922 2.31654L10.9465 5.79601C10.8848 5.94465 10.8744 6.10936 10.917 6.26533C10.9596 6.42129 11.0528 6.56004 11.1826 6.66067L13.1359 8.1748C12.0243 10.6088 10.0443 12.577 7.63947 13.7145L6.02792 11.8559C5.92082 11.7324 5.77585 11.6458 5.61487 11.6091C5.45389 11.5725 5.28562 11.5878 5.13543 11.6528L1.61968 13.1739C1.45731 13.2441 1.32599 13.3681 1.24868 13.5241C1.17137 13.6802 1.15298 13.8584 1.19673 14.0276L2.02635 17.2362C2.06855 17.3994 2.166 17.5444 2.30281 17.6475C2.43961 17.7506 2.60768 17.8058 2.77961 17.804Z" fill="#009988"/>
</g>
<defs>
<clipPath id="clip0_2606_6770">
<rect width="20" height="20" fill="white"/>
</clipPath>
</defs>
</svg>
